  0
SECTION
  2
HEADER
  9
$ACADVER
  1
AC1014
  9
$HANDSEED
  5
FFFF
  9
$MEASUREMENT
 70
     1
  0
ENDSEC
  0
SECTION
  2
TABLES
  0
TABLE
  2
VPORT
  5
8
330
0
100
AcDbSymbolTable
 70
     4
  0
VPORT
  5
2E
330
8
100
AcDbSymbolTableRecord
100
AcDbViewportTableRecord
  2
*ACTIVE
 70
     0
 10
0.0
 20
0.0
 11
1.0
 21
1.0
 12
210.0
 22
148.5
 13
0.0
 23
0.0
 14
10.0
 24
10.0
 15
10.0
 25
10.0
 16
0.0
 26
0.0
 36
1.0
 17
0.0
 27
0.0
 37
0.0
 40
341.0
 41
1.24
 42
50.0
 43
0.0
 44
0.0
 50
0.0
 51
0.0
 71
     0
 72
   100
 73
     1
 74
     3
 75
     0
 76
     0
 77
     0
 78
     0
  0
ENDTAB
  0
TABLE
  2
LTYPE
  5
5
330
0
100
AcDbSymbolTable
 70
     1
  0
LTYPE
  5
14
330
5
100
AcDbSymbolTableRecord
100
AcDbLinetypeTableRecord
  2
BYBLOCK
 70
     0
  3

 72
    65
 73
     0
 40
0.0
  0
LTYPE
  5
15
330
5
100
AcDbSymbolTableRecord
100
AcDbLinetypeTableRecord
  2
BYLAYER
 70
     0
  3

 72
    65
 73
     0
 40
0.0
  0
LTYPE
  5
16
330
5
100
AcDbSymbolTableRecord
100
AcDbLinetypeTableRecord
  2
CONTINUOUS
 70
     0
  3
Solid line
 72
    65
 73
     0
 40
0.0
  0
ENDTAB
  0
TABLE
  2
LAYER
  5
2
100
AcDbSymbolTable
 70
2
  0
LAYER
  5
50
100
AcDbSymbolTableRecord
100
AcDbLayerTableRecord
  2
0
 70
0
  6
CONTINUOUS
  0
LAYER
  5
51
100
AcDbSymbolTableRecord
100
AcDbLayerTableRecord
  2
Calque_1
 70
0
  6
CONTINUOUS
  0
ENDTAB
  0
TABLE
  2
STYLE
  5
3
330
0
100
AcDbSymbolTable
 70
     1
  0
STYLE
  5
11
330
3
100
AcDbSymbolTableRecord
100
AcDbTextStyleTableRecord
  2
STANDARD
 70
     0
 40
0.0
 41
1.0
 50
0.0
 71
     0
 42
2.5
  3
txt
  4

  0
ENDTAB
  0
TABLE
  2
VIEW
  5
6
330
0
100
AcDbSymbolTable
 70
     0
  0
ENDTAB
  0
TABLE
  2
UCS
  5
7
330
0
100
AcDbSymbolTable
 70
     0
  0
ENDTAB
  0
TABLE
  2
APPID
  5
9
330
0
100
AcDbSymbolTable
 70
     2
  0
APPID
  5
12
330
9
100
AcDbSymbolTableRecord
100
AcDbRegAppTableRecord
  2
ACAD
 70
     0
  0
ENDTAB
  0
TABLE
  2
DIMSTYLE
  5
A
330
0
100
AcDbSymbolTable
 70
     1
  0
DIMSTYLE
105
27
330
A
100
AcDbSymbolTableRecord
100
AcDbDimStyleTableRecord
  2
ISO-25
 70
     0
  3

  4

  5

  6

  7

 40
1.0
 41
2.5
 42
0.625
 43
3.75
 44
1.25
 45
0.0
 46
0.0
 47
0.0
 48
0.0
140
2.5
141
2.5
142
0.0
143
0.03937007874016
144
1.0
145
0.0
146
1.0
147
0.625
 71
     0
 72
     0
 73
     0
 74
     0
 75
     0
 76
     0
 77
     1
 78
     8
170
     0
171
     3
172
     1
173
     0
174
     0
175
     0
176
     0
177
     0
178
     0
270
     2
271
     2
272
     2
273
     2
274
     3
340
11
275
     0
280
     0
281
     0
282
     0
283
     0
284
     8
285
     0
286
     0
287
     3
288
     0
  0
ENDTAB
  0
TABLE
  2
BLOCK_RECORD
  5
1
330
0
100
AcDbSymbolTable
 70
     1
  0
BLOCK_RECORD
  5
1F
330
1
100
AcDbSymbolTableRecord
100
AcDbBlockTableRecord
  2
*MODEL_SPACE
  0
BLOCK_RECORD
  5
1B
330
1
100
AcDbSymbolTableRecord
100
AcDbBlockTableRecord
  2
*PAPER_SPACE
  0
ENDTAB
  0
ENDSEC
  0
SECTION
  2
BLOCKS
  0
BLOCK
  5
20
330
1F
100
AcDbEntity
  8
0
100
AcDbBlockBegin
  2
*MODEL_SPACE
 70
     0
 10
0.0
 20
0.0
 30
0.0
  3
*MODEL_SPACE
  1

  0
ENDBLK
  5
21
330
1F
100
AcDbEntity
  8
0
100
AcDbBlockEnd
  0
BLOCK
  5
1C
330
1B
100
AcDbEntity
 67
     1
  8
0
100
AcDbBlockBegin
  2
*PAPER_SPACE
  1

  0
ENDBLK
  5
1D
330
1B
100
AcDbEntity
 67
     1
  8
0
100
AcDbBlockEnd
  0
ENDSEC
  0
SECTION
  2
ENTITIES
  0
SPLINE
  5
100
100
AcDbEntity
  8
Calque_1
 62
7
100
AcDbSpline
 70
8
 71
3
 72
8
 73
4
 74
0
 40
0
 40
0
 40
0
 40
0
 40
1
 40
1
 40
1
 40
1
 10
19.146524
 20
5.514280
 30
0.0
 10
19.146524
 20
5.197367
 30
0.0
 10
19.126077
 20
4.962237
 30
0.0
 10
19.085184
 20
4.808890
 30
0.0
  0
SPLINE
  5
101
100
AcDbEntity
  8
Calque_1
 62
7
100
AcDbSpline
 70
8
 71
3
 72
8
 73
4
 74
0
 40
0
 40
0
 40
0
 40
0
 40
1
 40
1
 40
1
 40
1
 10
19.085184
 20
4.808890
 30
0.0
 10
19.054517
 20
4.655550
 30
0.0
 10
19.003403
 20
4.548210
 30
0.0
 10
18.931840
 20
4.486870
 30
0.0
  0
SPLINE
  5
102
100
AcDbEntity
  8
Calque_1
 62
7
100
AcDbSpline
 70
8
 71
3
 72
8
 73
4
 74
0
 40
0
 40
0
 40
0
 40
0
 40
1
 40
1
 40
1
 40
1
 10
18.931840
 20
4.486870
 30
0.0
 10
18.870500
 20
4.425537
 30
0.0
 10
18.778494
 20
4.369310
 30
0.0
 10
18.655821
 20
4.318190
 30
0.0
  0
SPLINE
  5
103
100
AcDbEntity
  8
Calque_1
 62
7
100
AcDbSpline
 70
8
 71
3
 72
8
 73
4
 74
0
 40
0
 40
0
 40
0
 40
0
 40
1
 40
1
 40
1
 40
1
 10
18.655821
 20
4.318190
 30
0.0
 10
18.533146
 20
4.267057
 30
0.0
 10
18.379802
 20
4.226167
 30
0.0
 10
18.195789
 20
4.195520
 30
0.0
  0
SPLINE
  5
104
100
AcDbEntity
  8
Calque_1
 62
7
100
AcDbSpline
 70
8
 71
3
 72
8
 73
4
 74
0
 40
0
 40
0
 40
0
 40
0
 40
1
 40
1
 40
1
 40
1
 10
18.195789
 20
4.195520
 30
0.0
 10
18.011776
 20
4.154653
 30
0.0
 10
17.827764
 20
4.123987
 30
0.0
 10
17.643751
 20
4.103520
 30
0.0
  0
SPLINE
  5
105
100
AcDbEntity
  8
Calque_1
 62
7
100
AcDbSpline
 70
8
 71
3
 72
8
 73
4
 74
0
 40
0
 40
0
 40
0
 40
0
 40
1
 40
1
 40
1
 40
1
 10
17.643751
 20
4.103520
 30
0.0
 10
17.459738
 20
4.072853
 30
0.0
 10
17.265502
 20
4.057520
 30
0.0
 10
17.061043
 20
4.057520
 30
0.0
  0
SPLINE
  5
106
100
AcDbEntity
  8
Calque_1
 62
7
100
AcDbSpline
 70
8
 71
3
 72
8
 73
4
 74
0
 40
0
 40
0
 40
0
 40
0
 40
1
 40
1
 40
1
 40
1
 10
17.061043
 20
4.057520
 30
0.0
 10
16.682794
 20
4.057520
 30
0.0
 10
16.314769
 20
4.103523
 30
0.0
 10
15.956966
 20
4.195530
 30
0.0
  0
SPLINE
  5
107
100
AcDbEntity
  8
Calque_1
 62
7
100
AcDbSpline
 70
8
 71
3
 72
8
 73
4
 74
0
 40
0
 40
0
 40
0
 40
0
 40
1
 40
1
 40
1
 40
1
 10
15.956966
 20
4.195530
 30
0.0
 10
15.599163
 20
4.287537
 30
0.0
 10
15.277141
 20
4.445990
 30
0.0
 10
14.990899
 20
4.670890
 30
0.0
  0
SPLINE
  5
108
100
AcDbEntity
  8
Calque_1
 62
7
100
AcDbSpline
 70
8
 71
3
 72
8
 73
4
 74
0
 40
0
 40
0
 40
0
 40
0
 40
1
 40
1
 40
1
 40
1
 10
14.990899
 20
4.670890
 30
0.0
 10
14.714880
 20
4.906017
 30
0.0
 10
14.479752
 20
5.212707
 30
0.0
 10
14.285516
 20
5.590960
 30
0.0
  0
SPLINE
  5
109
100
AcDbEntity
  8
Calque_1
 62
7
100
AcDbSpline
 70
8
 71
3
 72
8
 73
4
 74
0
 40
0
 40
0
 40
0
 40
0
 40
1
 40
1
 40
1
 40
1
 10
14.285516
 20
5.590960
 30
0.0
 10
14.091281
 20
5.979427
 30
0.0
 10
13.963494
 20
6.470127
 30
0.0
 10
13.902156
 20
7.063060
 30
0.0
  0
SPLINE
  5
10a
100
AcDbEntity
  8
Calque_1
 62
7
100
AcDbSpline
 70
8
 71
3
 72
8
 73
4
 74
0
 40
0
 40
0
 40
0
 40
0
 40
1
 40
1
 40
1
 40
1
 10
13.902156
 20
7.063060
 30
0.0
 10
13.707921
 20
6.623473
 30
0.0
 10
13.457459
 20
6.219667
 30
0.0
 10
13.150771
 20
5.851640
 30
0.0
  0
SPLINE
  5
10b
100
AcDbEntity
  8
Calque_1
 62
7
100
AcDbSpline
 70
8
 71
3
 72
8
 73
4
 74
0
 40
0
 40
0
 40
0
 40
0
 40
1
 40
1
 40
1
 40
1
 10
13.150771
 20
5.851640
 30
0.0
 10
12.844083
 20
5.483613
 30
0.0
 10
12.486280
 20
5.161593
 30
0.0
 10
12.077363
 20
4.885580
 30
0.0
  0
SPLINE
  5
10c
100
AcDbEntity
  8
Calque_1
 62
7
100
AcDbSpline
 70
8
 71
3
 72
8
 73
4
 74
0
 40
0
 40
0
 40
0
 40
0
 40
1
 40
1
 40
1
 40
1
 10
12.077363
 20
4.885580
 30
0.0
 10
11.678668
 20
4.619780
 30
0.0
 10
11.233971
 20
4.415320
 30
0.0
 10
10.743270
 20
4.272200
 30
0.0
  0
SPLINE
  5
10d
100
AcDbEntity
  8
Calque_1
 62
7
100
AcDbSpline
 70
8
 71
3
 72
8
 73
4
 74
0
 40
0
 40
0
 40
0
 40
0
 40
1
 40
1
 40
1
 40
1
 10
10.743270
 20
4.272200
 30
0.0
 10
10.252569
 20
4.118853
 30
0.0
 10
9.726087
 20
4.042180
 30
0.0
 10
9.163826
 20
4.042180
 30
0.0
  0
SPLINE
  5
10e
100
AcDbEntity
  8
Calque_1
 62
7
100
AcDbSpline
 70
8
 71
3
 72
8
 73
4
 74
0
 40
0
 40
0
 40
0
 40
0
 40
1
 40
1
 40
1
 40
1
 10
9.163826
 20
4.042180
 30
0.0
 10
8.141533
 20
4.042180
 30
0.0
 10
7.267472
 20
4.231307
 30
0.0
 10
6.541643
 20
4.609560
 30
0.0
  0
SPLINE
  5
10f
100
AcDbEntity
  8
Calque_1
 62
7
100
AcDbSpline
 70
8
 71
3
 72
8
 73
4
 74
0
 40
0
 40
0
 40
0
 40
0
 40
1
 40
1
 40
1
 40
1
 10
6.541643
 20
4.609560
 30
0.0
 10
5.815815
 20
4.987807
 30
0.0
 10
5.222885
 20
5.509173
 30
0.0
 10
4.762853
 20
6.173660
 30
0.0
  0
SPLINE
  5
110
100
AcDbEntity
  8
Calque_1
 62
7
100
AcDbSpline
 70
8
 71
3
 72
8
 73
4
 74
0
 40
0
 40
0
 40
0
 40
0
 40
1
 40
1
 40
1
 40
1
 10
4.762853
 20
6.173660
 30
0.0
 10
4.313044
 20
6.838153
 30
0.0
 10
3.980798
 20
7.625320
 30
0.0
 10
3.766117
 20
8.535160
 30
0.0
  0
SPLINE
  5
111
100
AcDbEntity
  8
Calque_1
 62
7
100
AcDbSpline
 70
8
 71
3
 72
8
 73
4
 74
0
 40
0
 40
0
 40
0
 40
0
 40
1
 40
1
 40
1
 40
1
 10
3.766117
 20
8.535160
 30
0.0
 10
3.551435
 20
9.445000
 30
0.0
 10
3.444094
 20
10.421290
 30
0.0
 10
3.444094
 20
11.464030
 30
0.0
  0
SPLINE
  5
112
100
AcDbEntity
  8
Calque_1
 62
7
100
AcDbSpline
 70
8
 71
3
 72
8
 73
4
 74
0
 40
0
 40
0
 40
0
 40
0
 40
1
 40
1
 40
1
 40
1
 10
3.444094
 20
11.464030
 30
0.0
 10
3.444094
 20
12.649890
 30
0.0
 10
3.576992
 20
13.718187
 30
0.0
 10
3.842789
 20
14.668920
 30
0.0
  0
SPLINE
  5
113
100
AcDbEntity
  8
Calque_1
 62
7
100
AcDbSpline
 70
8
 71
3
 72
8
 73
4
 74
0
 40
0
 40
0
 40
0
 40
0
 40
1
 40
1
 40
1
 40
1
 10
3.842789
 20
14.668920
 30
0.0
 10
4.108585
 20
15.619653
 30
0.0
 10
4.502168
 20
16.432377
 30
0.0
 10
5.023538
 20
17.107090
 30
0.0
  0
SPLINE
  5
114
100
AcDbEntity
  8
Calque_1
 62
7
100
AcDbSpline
 70
8
 71
3
 72
8
 73
4
 74
0
 40
0
 40
0
 40
0
 40
0
 40
1
 40
1
 40
1
 40
1
 10
5.023538
 20
17.107090
 30
0.0
 10
5.555130
 20
17.781803
 30
0.0
 10
6.204286
 20
18.298063
 30
0.0
 10
6.971007
 20
18.655870
 30
0.0
  0
SPLINE
  5
115
100
AcDbEntity
  8
Calque_1
 62
7
100
AcDbSpline
 70
8
 71
3
 72
8
 73
4
 74
0
 40
0
 40
0
 40
0
 40
0
 40
1
 40
1
 40
1
 40
1
 10
6.971007
 20
18.655870
 30
0.0
 10
7.737727
 20
19.023897
 30
0.0
 10
8.627122
 20
19.207910
 30
0.0
 10
9.639193
 20
19.207910
 30
0.0
  0
SPLINE
  5
116
100
AcDbEntity
  8
Calque_1
 62
7
100
AcDbSpline
 70
8
 71
3
 72
8
 73
4
 74
0
 40
0
 40
0
 40
0
 40
0
 40
1
 40
1
 40
1
 40
1
 10
9.639193
 20
19.207910
 30
0.0
 10
10.293460
 20
19.207910
 30
0.0
 10
10.906836
 20
19.100567
 30
0.0
 10
11.479321
 20
18.885880
 30
0.0
  0
SPLINE
  5
117
100
AcDbEntity
  8
Calque_1
 62
7
100
AcDbSpline
 70
8
 71
3
 72
8
 73
4
 74
0
 40
0
 40
0
 40
0
 40
0
 40
1
 40
1
 40
1
 40
1
 10
11.479321
 20
18.885880
 30
0.0
 10
12.051805
 20
18.681427
 30
0.0
 10
12.557840
 20
18.374740
 30
0.0
 10
12.997427
 20
17.965820
 30
0.0
  0
SPLINE
  5
118
100
AcDbEntity
  8
Calque_1
 62
7
100
AcDbSpline
 70
8
 71
3
 72
8
 73
4
 74
0
 40
0
 40
0
 40
0
 40
0
 40
1
 40
1
 40
1
 40
1
 10
12.997427
 20
17.965820
 30
0.0
 10
13.437013
 20
17.556900
 30
0.0
 10
13.799927
 20
17.045753
 30
0.0
 10
14.086169
 20
16.432380
 30
0.0
  0
SPLINE
  5
119
100
AcDbEntity
  8
Calque_1
 62
7
100
AcDbSpline
 70
8
 71
3
 72
8
 73
4
 74
0
 40
0
 40
0
 40
0
 40
0
 40
1
 40
1
 40
1
 40
1
 10
14.086169
 20
16.432380
 30
0.0
 10
14.372411
 20
15.829227
 30
0.0
 10
14.561535
 20
15.123843
 30
0.0
 10
14.653542
 20
14.316230
 30
0.0
  0
SPLINE
  5
11a
100
AcDbEntity
  8
Calque_1
 62
7
100
AcDbSpline
 70
8
 71
3
 72
8
 73
4
 74
0
 40
0
 40
0
 40
0
 40
0
 40
1
 40
1
 40
1
 40
1
 10
14.653542
 20
14.316230
 30
0.0
 10
14.827332
 20
15.052283
 30
0.0
 10
14.960230
 20
15.691217
 30
0.0
 10
15.052237
 20
16.233030
 30
0.0
  0
SPLINE
  5
11b
100
AcDbEntity
  8
Calque_1
 62
7
100
AcDbSpline
 70
8
 71
3
 72
8
 73
4
 74
0
 40
0
 40
0
 40
0
 40
0
 40
1
 40
1
 40
1
 40
1
 10
15.052237
 20
16.233030
 30
0.0
 10
15.154466
 20
16.774850
 30
0.0
 10
15.226027
 20
17.224660
 30
0.0
 10
15.266918
 20
17.582460
 30
0.0
  0
SPLINE
  5
11c
100
AcDbEntity
  8
Calque_1
 62
7
100
AcDbSpline
 70
8
 71
3
 72
8
 73
4
 74
0
 40
0
 40
0
 40
0
 40
0
 40
1
 40
1
 40
1
 40
1
 10
15.266918
 20
17.582460
 30
0.0
 10
15.318031
 20
17.950487
 30
0.0
 10
15.353812
 20
18.231617
 30
0.0
 10
15.374259
 20
18.425850
 30
0.0
  0
SPLINE
  5
11d
100
AcDbEntity
  8
Calque_1
 62
7
100
AcDbSpline
 70
8
 71
3
 72
8
 73
4
 74
0
 40
0
 40
0
 40
0
 40
0
 40
1
 40
1
 40
1
 40
1
 10
15.374259
 20
18.425850
 30
0.0
 10
15.404926
 20
18.630310
 30
0.0
 10
15.440706
 20
18.752987
 30
0.0
 10
15.481600
 20
18.793880
 30
0.0
  0
SPLINE
  5
11e
100
AcDbEntity
  8
Calque_1
 62
7
100
AcDbSpline
 70
8
 71
3
 72
8
 73
4
 74
0
 40
0
 40
0
 40
0
 40
0
 40
1
 40
1
 40
1
 40
1
 10
15.481600
 20
18.793880
 30
0.0
 10
15.512267
 20
18.814347
 30
0.0
 10
15.553158
 20
18.834780
 30
0.0
 10
15.604275
 20
18.855180
 30
0.0
  0
SPLINE
  5
11f
100
AcDbEntity
  8
Calque_1
 62
7
100
AcDbSpline
 70
8
 71
3
 72
8
 73
4
 74
0
 40
0
 40
0
 40
0
 40
0
 40
1
 40
1
 40
1
 40
1
 10
15.604275
 20
18.855180
 30
0.0
 10
15.655388
 20
18.885847
 30
0.0
 10
15.721837
 20
18.911413
 30
0.0
 10
15.803622
 20
18.931880
 30
0.0
  0
SPLINE
  5
120
100
AcDbEntity
  8
Calque_1
 62
7
100
AcDbSpline
 70
8
 71
3
 72
8
 73
4
 74
0
 40
0
 40
0
 40
0
 40
0
 40
1
 40
1
 40
1
 40
1
 10
15.803622
 20
18.931880
 30
0.0
 10
15.895629
 20
18.952347
 30
0.0
 10
16.002970
 20
18.967680
 30
0.0
 10
16.125645
 20
18.977880
 30
0.0
  0
SPLINE
  5
121
100
AcDbEntity
  8
Calque_1
 62
7
100
AcDbSpline
 70
8
 71
3
 72
8
 73
4
 74
0
 40
0
 40
0
 40
0
 40
0
 40
1
 40
1
 40
1
 40
1
 10
16.125645
 20
18.977880
 30
0.0
 10
16.258543
 20
18.988080
 30
0.0
 10
16.411887
 20
18.993180
 30
0.0
 10
16.585677
 20
18.993180
 30
0.0
  0
SPLINE
  5
122
100
AcDbEntity
  8
Calque_1
 62
7
100
AcDbSpline
 70
8
 71
3
 72
8
 73
4
 74
0
 40
0
 40
0
 40
0
 40
0
 40
1
 40
1
 40
1
 40
1
 10
16.585677
 20
18.993180
 30
0.0
 10
16.831027
 20
18.993180
 30
0.0
 10
17.030374
 20
18.982947
 30
0.0
 10
17.183718
 20
18.962480
 30
0.0
  0
SPLINE
  5
123
100
AcDbEntity
  8
Calque_1
 62
7
100
AcDbSpline
 70
8
 71
3
 72
8
 73
4
 74
0
 40
0
 40
0
 40
0
 40
0
 40
1
 40
1
 40
1
 40
1
 10
17.183718
 20
18.962480
 30
0.0
 10
17.347285
 20
18.952280
 30
0.0
 10
17.475072
 20
18.926713
 30
0.0
 10
17.567079
 20
18.885780
 30
0.0
  0
SPLINE
  5
124
100
AcDbEntity
  8
Calque_1
 62
7
100
AcDbSpline
 70
8
 71
3
 72
8
 73
4
 74
0
 40
0
 40
0
 40
0
 40
0
 40
1
 40
1
 40
1
 40
1
 10
17.567079
 20
18.885780
 30
0.0
 10
17.659085
 20
18.844913
 30
0.0
 10
17.725534
 20
18.793800
 30
0.0
 10
17.766426
 20
18.732440
 30
0.0
  0
SPLINE
  5
125
100
AcDbEntity
  8
Calque_1
 62
7
100
AcDbSpline
 70
8
 71
3
 72
8
 73
4
 74
0
 40
0
 40
0
 40
0
 40
0
 40
1
 40
1
 40
1
 40
1
 10
17.766426
 20
18.732440
 30
0.0
 10
17.807319
 20
18.671107
 30
0.0
 10
17.827766
 20
18.604657
 30
0.0
 10
17.827766
 20
18.533090
 30
0.0
  0
SPLINE
  5
126
100
AcDbEntity
  8
Calque_1
 62
7
100
AcDbSpline
 70
8
 71
3
 72
8
 73
4
 74
0
 40
0
 40
0
 40
0
 40
0
 40
1
 40
1
 40
1
 40
1
 10
17.827766
 20
18.533090
 30
0.0
 10
17.827766
 20
18.369523
 30
0.0
 10
17.802209
 20
18.113950
 30
0.0
 10
17.751096
 20
17.766370
 30
0.0
  0
SPLINE
  5
127
100
AcDbEntity
  8
Calque_1
 62
7
100
AcDbSpline
 70
8
 71
3
 72
8
 73
4
 74
0
 40
0
 40
0
 40
0
 40
0
 40
1
 40
1
 40
1
 40
1
 10
17.751096
 20
17.766370
 30
0.0
 10
17.699983
 20
17.429017
 30
0.0
 10
17.628422
 20
17.025213
 30
0.0
 10
17.536415
 20
16.554960
 30
0.0
  0
SPLINE
  5
128
100
AcDbEntity
  8
Calque_1
 62
7
100
AcDbSpline
 70
8
 71
3
 72
8
 73
4
 74
0
 40
0
 40
0
 40
0
 40
0
 40
1
 40
1
 40
1
 40
1
 10
17.536415
 20
16.554960
 30
0.0
 10
17.444408
 20
16.094927
 30
0.0
 10
17.331956
 20
15.588890
 30
0.0
 10
17.199058
 20
15.036850
 30
0.0
  0
SPLINE
  5
129
100
AcDbEntity
  8
Calque_1
 62
7
100
AcDbSpline
 70
8
 71
3
 72
8
 73
4
 74
0
 40
0
 40
0
 40
0
 40
0
 40
1
 40
1
 40
1
 40
1
 10
17.199058
 20
15.036850
 30
0.0
 10
17.066160
 20
14.495037
 30
0.0
 10
16.923039
 20
13.937887
 30
0.0
 10
16.769695
 20
13.365400
 30
0.0
  0
SPLINE
  5
12a
100
AcDbEntity
  8
Calque_1
 62
7
100
AcDbSpline
 70
8
 71
3
 72
8
 73
4
 74
0
 40
0
 40
0
 40
0
 40
0
 40
1
 40
1
 40
1
 40
1
 10
16.769695
 20
13.365400
 30
0.0
 10
16.626574
 20
12.803140
 30
0.0
 10
16.468118
 20
12.251100
 30
0.0
 10
16.294328
 20
11.709280
 30
0.0
  0
SPLINE
  5
12b
100
AcDbEntity
  8
Calque_1
 62
7
100
AcDbSpline
 70
8
 71
3
 72
8
 73
4
 74
0
 40
0
 40
0
 40
0
 40
0
 40
1
 40
1
 40
1
 40
1
 10
16.294328
 20
11.709280
 30
0.0
 10
16.120538
 20
11.177693
 30
0.0
 10
15.941637
 20
10.686993
 30
0.0
 10
15.757624
 20
10.237180
 30
0.0
  0
SPLINE
  5
12c
100
AcDbEntity
  8
Calque_1
 62
7
100
AcDbSpline
 70
8
 71
3
 72
8
 73
4
 74
0
 40
0
 40
0
 40
0
 40
0
 40
1
 40
1
 40
1
 40
1
 10
15.757624
 20
10.237180
 30
0.0
 10
15.767844
 20
9.368233
 30
0.0
 10
15.818959
 20
8.667963
 30
0.0
 10
15.910968
 20
8.136370
 30
0.0
  0
SPLINE
  5
12d
100
AcDbEntity
  8
Calque_1
 62
7
100
AcDbSpline
 70
8
 71
3
 72
8
 73
4
 74
0
 40
0
 40
0
 40
0
 40
0
 40
1
 40
1
 40
1
 40
1
 10
15.910968
 20
8.136370
 30
0.0
 10
16.002975
 20
7.614997
 30
0.0
 10
16.125650
 20
7.206080
 30
0.0
 10
16.278994
 20
6.909620
 30
0.0
  0
SPLINE
  5
12e
100
AcDbEntity
  8
Calque_1
 62
7
100
AcDbSpline
 70
8
 71
3
 72
8
 73
4
 74
0
 40
0
 40
0
 40
0
 40
0
 40
1
 40
1
 40
1
 40
1
 10
16.278994
 20
6.909620
 30
0.0
 10
16.442561
 20
6.623373
 30
0.0
 10
16.621462
 20
6.429137
 30
0.0
 10
16.815698
 20
6.326910
 30
0.0
  0
SPLINE
  5
12f
100
AcDbEntity
  8
Calque_1
 62
7
100
AcDbSpline
 70
8
 71
3
 72
8
 73
4
 74
0
 40
0
 40
0
 40
0
 40
0
 40
1
 40
1
 40
1
 40
1
 10
16.815698
 20
6.326910
 30
0.0
 10
17.009933
 20
6.234903
 30
0.0
 10
17.214392
 20
6.188900
 30
0.0
 10
17.429074
 20
6.188900
 30
0.0
  0
SPLINE
  5
130
100
AcDbEntity
  8
Calque_1
 62
7
100
AcDbSpline
 70
8
 71
3
 72
8
 73
4
 74
0
 40
0
 40
0
 40
0
 40
0
 40
1
 40
1
 40
1
 40
1
 10
17.429074
 20
6.188900
 30
0.0
 10
17.613087
 20
6.188900
 30
0.0
 10
17.781765
 20
6.204233
 30
0.0
 10
17.935109
 20
6.234900
 30
0.0
  0
SPLINE
  5
131
100
AcDbEntity
  8
Calque_1
 62
7
100
AcDbSpline
 70
8
 71
3
 72
8
 73
4
 74
0
 40
0
 40
0
 40
0
 40
0
 40
1
 40
1
 40
1
 40
1
 10
17.935109
 20
6.234900
 30
0.0
 10
18.088453
 20
6.275767
 30
0.0
 10
18.221351
 20
6.311547
 30
0.0
 10
18.333804
 20
6.342240
 30
0.0
  0
SPLINE
  5
132
100
AcDbEntity
  8
Calque_1
 62
7
100
AcDbSpline
 70
8
 71
3
 72
8
 73
4
 74
0
 40
0
 40
0
 40
0
 40
0
 40
1
 40
1
 40
1
 40
1
 10
18.333804
 20
6.342240
 30
0.0
 10
18.456479
 20
6.372907
 30
0.0
 10
18.558708
 20
6.403573
 30
0.0
 10
18.640492
 20
6.434240
 30
0.0
  0
SPLINE
  5
133
100
AcDbEntity
  8
Calque_1
 62
7
100
AcDbSpline
 70
8
 71
3
 72
8
 73
4
 74
0
 40
0
 40
0
 40
0
 40
0
 40
1
 40
1
 40
1
 40
1
 10
18.640492
 20
6.434240
 30
0.0
 10
18.732498
 20
6.475107
 30
0.0
 10
18.809170
 20
6.495540
 30
0.0
 10
18.870508
 20
6.495540
 30
0.0
  0
SPLINE
  5
134
100
AcDbEntity
  8
Calque_1
 62
7
100
AcDbSpline
 70
8
 71
3
 72
8
 73
4
 74
0
 40
0
 40
0
 40
0
 40
0
 40
1
 40
1
 40
1
 40
1
 10
18.870508
 20
6.495540
 30
0.0
 10
18.921621
 20
6.495540
 30
0.0
 10
18.962513
 20
6.480207
 30
0.0
 10
18.993183
 20
6.449540
 30
0.0
  0
SPLINE
  5
135
100
AcDbEntity
  8
Calque_1
 62
7
100
AcDbSpline
 70
8
 71
3
 72
8
 73
4
 74
0
 40
0
 40
0
 40
0
 40
0
 40
1
 40
1
 40
1
 40
1
 10
18.993183
 20
6.449540
 30
0.0
 10
19.023850
 20
6.429073
 30
0.0
 10
19.049406
 20
6.383070
 30
0.0
 10
19.069853
 20
6.311530
 30
0.0
  0
SPLINE
  5
136
100
AcDbEntity
  8
Calque_1
 62
7
100
AcDbSpline
 70
8
 71
3
 72
8
 73
4
 74
0
 40
0
 40
0
 40
0
 40
0
 40
1
 40
1
 40
1
 40
1
 10
19.069853
 20
6.311530
 30
0.0
 10
19.100520
 20
6.239970
 30
0.0
 10
19.120966
 20
6.137743
 30
0.0
 10
19.131193
 20
6.004850
 30
0.0
  0
SPLINE
  5
137
100
AcDbEntity
  8
Calque_1
 62
7
100
AcDbSpline
 70
8
 71
3
 72
8
 73
4
 74
0
 40
0
 40
0
 40
0
 40
0
 40
1
 40
1
 40
1
 40
1
 10
19.131193
 20
6.004850
 30
0.0
 10
19.141413
 20
5.882170
 30
0.0
 10
19.146523
 20
5.718603
 30
0.0
 10
19.146523
 20
5.514150
 30
0.0
  0
SPLINE
  5
138
100
AcDbEntity
  8
Calque_1
 62
7
100
AcDbSpline
 70
8
 71
3
 72
8
 73
4
 74
0
 40
0
 40
0
 40
0
 40
0
 40
1
 40
1
 40
1
 40
1
 10
13.212110
 20
11.709370
 30
0.0
 10
13.212110
 20
12.670330
 30
0.0
 10
13.109881
 20
13.493277
 30
0.0
 10
12.905422
 20
14.178210
 30
0.0
  0
SPLINE
  5
139
100
AcDbEntity
  8
Calque_1
 62
7
100
AcDbSpline
 70
8
 71
3
 72
8
 73
4
 74
0
 40
0
 40
0
 40
0
 40
0
 40
1
 40
1
 40
1
 40
1
 10
12.905422
 20
14.178210
 30
0.0
 10
12.711187
 20
14.863150
 30
0.0
 10
12.450502
 20
15.420300
 30
0.0
 10
12.123368
 20
15.849660
 30
0.0
  0
SPLINE
  5
13a
100
AcDbEntity
  8
Calque_1
 62
7
100
AcDbSpline
 70
8
 71
3
 72
8
 73
4
 74
0
 40
0
 40
0
 40
0
 40
0
 40
1
 40
1
 40
1
 40
1
 10
12.123368
 20
15.849660
 30
0.0
 10
11.796234
 20
16.289247
 30
0.0
 10
11.417985
 20
16.606160
 30
0.0
 10
10.988622
 20
16.800400
 30
0.0
  0
SPLINE
  5
13b
100
AcDbEntity
  8
Calque_1
 62
7
100
AcDbSpline
 70
8
 71
3
 72
8
 73
4
 74
0
 40
0
 40
0
 40
0
 40
0
 40
1
 40
1
 40
1
 40
1
 10
10.988622
 20
16.800400
 30
0.0
 10
10.569481
 20
17.004853
 30
0.0
 10
10.129895
 20
17.107080
 30
0.0
 10
9.669863
 20
17.107080
 30
0.0
  0
SPLINE
  5
13c
100
AcDbEntity
  8
Calque_1
 62
7
100
AcDbSpline
 70
8
 71
3
 72
8
 73
4
 74
0
 40
0
 40
0
 40
0
 40
0
 40
1
 40
1
 40
1
 40
1
 10
9.669863
 20
17.107080
 30
0.0
 10
9.025819
 20
17.107080
 30
0.0
 10
8.473780
 20
16.953737
 30
0.0
 10
8.013748
 20
16.647050
 30
0.0
  0
SPLINE
  5
13d
100
AcDbEntity
  8
Calque_1
 62
7
100
AcDbSpline
 70
8
 71
3
 72
8
 73
4
 74
0
 40
0
 40
0
 40
0
 40
0
 40
1
 40
1
 40
1
 40
1
 10
8.013748
 20
16.647050
 30
0.0
 10
7.563939
 20
16.340363
 30
0.0
 10
7.190802
 20
15.931447
 30
0.0
 10
6.894337
 20
15.420300
 30
0.0
  0
SPLINE
  5
13e
100
AcDbEntity
  8
Calque_1
 62
7
100
AcDbSpline
 70
8
 71
3
 72
8
 73
4
 74
0
 40
0
 40
0
 40
0
 40
0
 40
1
 40
1
 40
1
 40
1
 10
6.894337
 20
15.420300
 30
0.0
 10
6.608094
 20
14.919373
 30
0.0
 10
6.398524
 20
14.346890
 30
0.0
 10
6.265626
 20
13.702850
 30
0.0
  0
SPLINE
  5
13f
100
AcDbEntity
  8
Calque_1
 62
7
100
AcDbSpline
 70
8
 71
3
 72
8
 73
4
 74
0
 40
0
 40
0
 40
0
 40
0
 40
1
 40
1
 40
1
 40
1
 10
6.265626
 20
13.702850
 30
0.0
 10
6.132728
 20
13.058803
 30
0.0
 10
6.066279
 20
12.399423
 30
0.0
 10
6.066279
 20
11.724710
 30
0.0
  0
SPLINE
  5
140
100
AcDbEntity
  8
Calque_1
 62
7
100
AcDbSpline
 70
8
 71
3
 72
8
 73
4
 74
0
 40
0
 40
0
 40
0
 40
0
 40
1
 40
1
 40
1
 40
1
 10
6.066279
 20
11.724710
 30
0.0
 10
6.066279
 20
10.998883
 30
0.0
 10
6.117394
 20
10.298613
 30
0.0
 10
6.219623
 20
9.623900
 30
0.0
  0
SPLINE
  5
141
100
AcDbEntity
  8
Calque_1
 62
7
100
AcDbSpline
 70
8
 71
3
 72
8
 73
4
 74
0
 40
0
 40
0
 40
0
 40
0
 40
1
 40
1
 40
1
 40
1
 10
6.219623
 20
9.623900
 30
0.0
 10
6.321852
 20
8.959407
 30
0.0
 10
6.505865
 20
8.366473
 30
0.0
 10
6.771661
 20
7.845100
 30
0.0
  0
SPLINE
  5
142
100
AcDbEntity
  8
Calque_1
 62
7
100
AcDbSpline
 70
8
 71
3
 72
8
 73
4
 74
0
 40
0
 40
0
 40
0
 40
0
 40
1
 40
1
 40
1
 40
1
 10
6.771661
 20
7.845100
 30
0.0
 10
7.037458
 20
7.333953
 30
0.0
 10
7.385037
 20
6.919927
 30
0.0
 10
7.814401
 20
6.603020
 30
0.0
  0
SPLINE
  5
143
100
AcDbEntity
  8
Calque_1
 62
7
100
AcDbSpline
 70
8
 71
3
 72
8
 73
4
 74
0
 40
0
 40
0
 40
0
 40
0
 40
1
 40
1
 40
1
 40
1
 10
7.814401
 20
6.603020
 30
0.0
 10
8.253987
 20
6.296333
 30
0.0
 10
8.811137
 20
6.142990
 30
0.0
 10
9.485851
 20
6.142990
 30
0.0
  0
SPLINE
  5
144
100
AcDbEntity
  8
Calque_1
 62
7
100
AcDbSpline
 70
8
 71
3
 72
8
 73
4
 74
0
 40
0
 40
0
 40
0
 40
0
 40
1
 40
1
 40
1
 40
1
 10
9.485851
 20
6.142990
 30
0.0
 10
10.089004
 20
6.142990
 30
0.0
 10
10.620596
 20
6.280997
 30
0.0
 10
11.080628
 20
6.557010
 30
0.0
  0
SPLINE
  5
145
100
AcDbEntity
  8
Calque_1
 62
7
100
AcDbSpline
 70
8
 71
3
 72
8
 73
4
 74
0
 40
0
 40
0
 40
0
 40
0
 40
1
 40
1
 40
1
 40
1
 10
11.080628
 20
6.557010
 30
0.0
 10
11.550883
 20
6.833030
 30
0.0
 10
11.939355
 20
7.216393
 30
0.0
 10
12.246043
 20
7.707100
 30
0.0
  0
SPLINE
  5
146
100
AcDbEntity
  8
Calque_1
 62
7
100
AcDbSpline
 70
8
 71
3
 72
8
 73
4
 74
0
 40
0
 40
0
 40
0
 40
0
 40
1
 40
1
 40
1
 40
1
 10
12.246043
 20
7.707100
 30
0.0
 10
12.562954
 20
8.208020
 30
0.0
 10
12.803193
 20
8.790727
 30
0.0
 10
12.966760
 20
9.455220
 30
0.0
  0
SPLINE
  5
147
100
AcDbEntity
  8
Calque_1
 62
7
100
AcDbSpline
 70
8
 71
3
 72
8
 73
4
 74
0
 40
0
 40
0
 40
0
 40
0
 40
1
 40
1
 40
1
 40
1
 10
12.966760
 20
9.455220
 30
0.0
 10
13.130327
 20
10.129933
 30
0.0
 10
13.212110
 20
10.860873
 30
0.0
 10
13.212110
 20
11.648040
 30
0.0
  0
LWPOLYLINE
  5
148
100
AcDbEntity
  8
Calque_1
 62
7
100
AcDbPolyline
 90
2
 70
0
 10
19.146523
 20
5.514150
 30
0.0
 10
19.146524
 20
5.514280
 30
0.0
  0
LWPOLYLINE
  5
149
100
AcDbEntity
  8
Calque_1
 62
7
100
AcDbPolyline
 90
2
 70
0
 10
13.212110
 20
11.648040
 30
0.0
 10
13.212110
 20
11.709370
 30
0.0
  0
ENDSEC
  0
SECTION
  2
OBJECTS
  0
DICTIONARY
  5
C
330
0
100
AcDbDictionary
  3
ACAD_GROUP
350
D
  3
ACAD_MLINESTYLE
350
17
  0
DICTIONARY
  5
D
330
C
100
AcDbDictionary
  0
DICTIONARY
  5
1A
330
C
100
AcDbDictionary
  0
DICTIONARY
  5
17
330
C
100
AcDbDictionary
  3
STANDARD
350
18
  0
DICTIONARY
  5
19
330
C
100
AcDbDictionary
  0
ENDSEC
  0
EOF
