<?xml version="1.0" encoding="UTF-8" standalone="no"?>
<!-- Created with Inkscape (http://www.inkscape.org/) -->

<svg
   xmlns:dc="http://purl.org/dc/elements/1.1/"
   xmlns:cc="http://creativecommons.org/ns#"
   xmlns:rdf="http://www.w3.org/1999/02/22-rdf-syntax-ns#"
   xmlns:svg="http://www.w3.org/2000/svg"
   xmlns="http://www.w3.org/2000/svg"
   xmlns:sodipodi="http://sodipodi.sourceforge.net/DTD/sodipodi-0.dtd"
   xmlns:inkscape="http://www.inkscape.org/namespaces/inkscape"
   width="23.25mm"
   height="23.25mm"
   viewBox="0 0 23.25 23.25"
   version="1.1"
   id="svg8"
   inkscape:version="0.92.3 (2405546, 2018-03-11)"
   sodipodi:docname="alpha.svg">
  <defs
     id="defs2">
    <pattern
       y="0"
       x="0"
       height="6"
       width="6"
       patternUnits="userSpaceOnUse"
       id="EMFhbasepattern" />
  </defs>
  <sodipodi:namedview
     id="base"
     pagecolor="#ffffff"
     bordercolor="#666666"
     borderopacity="1.0"
     inkscape:pageopacity="0.0"
     inkscape:pageshadow="2"
     inkscape:zoom="9.3087814"
     inkscape:cx="50.692162"
     inkscape:cy="43.56921"
     inkscape:document-units="mm"
     inkscape:current-layer="layer1"
     showgrid="false"
     showguides="true"
     inkscape:measure-start="-0.483415,79.3337"
     inkscape:measure-end="8.16433,78.2594"
     inkscape:window-width="1920"
     inkscape:window-height="1017"
     inkscape:window-x="-8"
     inkscape:window-y="-8"
     inkscape:window-maximized="1" />
  <metadata
     id="metadata5">
    <rdf:RDF>
      <cc:Work
         rdf:about="">
        <dc:format>image/svg+xml</dc:format>
        <dc:type
           rdf:resource="http://purl.org/dc/dcmitype/StillImage" />
        <dc:title></dc:title>
      </cc:Work>
    </rdf:RDF>
  </metadata>
  <g
     inkscape:label="Calque 1"
     inkscape:groupmode="layer"
     id="layer1"
     transform="translate(0,-273.75)">
    <g
       aria-label="α "
       style="font-style:normal;font-variant:normal;font-weight:400;font-size:12.40772247px;line-height:125%;font-family:Calibri;text-align:start;letter-spacing:0px;word-spacing:0px;text-anchor:start;fill:#000000;fill-opacity:1;stroke:none;stroke-width:0.84120148"
       id="text826">
      <path
         d="m 19.146524,291.48572 q 0,0.47537 -0.06134,0.70539 -0.046,0.23001 -0.153344,0.32202 -0.09201,0.092 -0.276019,0.16868 -0.184013,0.0767 -0.460032,0.12267 -0.276019,0.0613 -0.552038,0.092 -0.27602,0.046 -0.582708,0.046 -0.567373,0 -1.104077,-0.13801 -0.536704,-0.13801 -0.966067,-0.47536 -0.414029,-0.35269 -0.705383,-0.92007 -0.291353,-0.5827 -0.38336,-1.4721 -0.291353,0.65938 -0.751385,1.21142 -0.460032,0.55204 -1.073408,0.96606 -0.598042,0.3987 -1.334093,0.61338 -0.736052,0.23002 -1.5794439,0.23002 -1.5334402,0 -2.6221828,-0.56738 -1.0887425,-0.56737 -1.7787906,-1.5641 -0.6747137,-0.99674 -0.9967362,-2.3615 -0.3220224,-1.36476 -0.3220224,-2.92887 0,-1.77879 0.3986945,-3.20489 0.3986944,-1.4261 1.1807489,-2.43817 0.7973889,-1.01207 1.9474691,-1.54878 1.1500802,-0.55204 2.668186,-0.55204 0.9814014,0 1.8401284,0.32203 0.858726,0.30668 1.518106,0.92006 0.659379,0.61338 1.088742,1.53344 0.429363,0.90473 0.567373,2.11615 0.260685,-1.10408 0.398695,-1.9168 0.153344,-0.81273 0.214681,-1.34943 0.07667,-0.55204 0.107341,-0.84339 0.046,-0.30669 0.107341,-0.36803 0.046,-0.0307 0.122675,-0.0613 0.07667,-0.046 0.199347,-0.0767 0.13801,-0.0307 0.322023,-0.046 0.199347,-0.0153 0.460032,-0.0153 0.368025,0 0.598041,0.0307 0.245351,0.0153 0.383361,0.0767 0.138009,0.0613 0.199347,0.15334 0.06134,0.092 0.06134,0.19935 0,0.24535 -0.07667,0.76672 -0.07667,0.50603 -0.214681,1.21141 -0.13801,0.69005 -0.337357,1.51811 -0.199347,0.81272 -0.429363,1.67145 -0.214682,0.84339 -0.475367,1.65612 -0.260685,0.79738 -0.536704,1.4721 0.01533,1.30342 0.153344,2.10081 0.13801,0.78206 0.368026,1.22675 0.24535,0.42937 0.536704,0.58271 0.291353,0.13801 0.613376,0.13801 0.276019,0 0.506035,-0.046 0.230016,-0.0613 0.398695,-0.10734 0.184012,-0.046 0.306688,-0.092 0.138009,-0.0613 0.230016,-0.0613 0.07667,0 0.122675,0.046 0.046,0.0307 0.07667,0.13801 0.046,0.10734 0.06134,0.30668 0.01533,0.18402 0.01533,0.4907 z m -5.934414,-6.19509 q 0,-1.44144 -0.306688,-2.46884 -0.291353,-1.02741 -0.782054,-1.67145 -0.490701,-0.65938 -1.134746,-0.95074 -0.628711,-0.30668 -1.3187586,-0.30668 -0.9660673,0 -1.6561154,0.46003 -0.6747137,0.46003 -1.1194114,1.22675 -0.4293633,0.75139 -0.6287105,1.71745 -0.1993472,0.96607 -0.1993472,1.97814 0,1.08874 0.153344,2.10081 0.153344,0.99674 0.5520385,1.7788 0.3986944,0.76672 1.0427393,1.24208 0.6593793,0.46003 1.6714499,0.46003 0.9047294,0 1.5947774,-0.41402 0.705383,-0.41403 1.165415,-1.15009 0.475366,-0.75138 0.720717,-1.74812 0.24535,-1.01207 0.24535,-2.19282 z"
         style="font-style:normal;font-variant:normal;font-weight:400;font-size:31.40485573px;font-family:Calibri;fill:#000000;stroke-width:0.84120148"
         id="path843" />
    </g>
  </g>
</svg>
